<?xml version="1.0" standalone="no"?>
<!DOCTYPE svg PUBLIC "-//W3C//DTD SVG 1.1//EN" "http://www.w3.org/Graphics/SVG/1.1/DTD/svg11.dtd" >
<svg xmlns="http://www.w3.org/2000/svg">
<metadata>Generated by IcoMoon</metadata>
<defs>
<font id="icomoon" horiz-adv-x="1024">
<font-face units-per-em="1024" ascent="960" descent="-64" />
<missing-glyph horiz-adv-x="1024" />
<glyph unicode="&#x20;" horiz-adv-x="512" d="" />
<glyph unicode="&#xe900;" d="M2.774 935.893v-167.091h1.989c3.439 78.913 86.188 161.659 165.102 165.102l-51.719 1.989h-115.371z" />
<glyph unicode="&#xe901;" d="M492.108-42.774h-218.808c-81.614 0-161.805 0.189-208.833 79.568-34.079 57.522-21.91 136.766-21.91 200.904v367.995c0 61.032-10.131 132.986 12.064 190.961 24.826 64.845 88.811 97.807 155.026 99.429 171.5 4.201 343.636 0.029 515.193 0.029 74.379 0 159.587 10.359 214.255-51.725 51.501-58.489 42.347-134.334 42.347-206.864v-435.627c0-69.413 6.608-139.949-44.102-194.909-60.212-65.26-158.427-49.76-238.359-49.76v350.094h89.512c11.559 0 27.46-2.768 37.576 3.996 11.473 7.674 9.725 23.776 11.309 35.787 4.347 33.014 5.556 66.448 9.948 99.459 1.636 12.303 5.685 31.077-5.807 39.994-9.71 7.534-29.484 3.768-41.089 3.768h-101.448c0 20.53-9.034 71.36 6.597 86.892 7.937 7.884 24.963 4.61 35.174 4.61 27.282 0 67.816-7.543 93.482 2.052 16.392 6.131 13.932 23.49 13.932 37.73v89.512c0 11.912 2.908 28.49-2.007 39.596-6.391 14.434-24.869 12.123-37.776 12.123h-105.425c-27.389 0-54.814-0.259-81.556-6.912-17.512-4.358-34.285-10.762-49.729-20.171-88.331-53.804-79.568-155.901-79.568-245.432h-77.578c-10.72 0-24.495 2.166-33.362-5.278-9.709-8.149-6.421-25.224-6.421-36.496v-97.47c0-11.642-3.599-30.074 6.421-38.486 8.869-7.443 22.643-5.278 33.362-5.278h77.578v-35.804c0-9.053-2.046-21.191 1.708-29.65 5.462-12.314 26.208-13.901 34.309-3.482 12.164 15.646 3.774 61.494 3.768 80.871-0.004 8.709 0.966 18.36-6.421 24.56-8.869 7.443-22.643 5.278-33.362 5.278h-77.578v99.459h77.578c10.72 0 24.495-2.166 33.362 5.278 14.375 12.066 6.421 56.88 6.421 74.289 0 51.242-0.048 108.451 36.171 149.179 55.975 62.943 163.169 43.771 238.334 43.771v-97.47c-41.231 0-121.399 16.476-142.518-29.838-9.453-20.726-4.681-49.341-4.681-71.61 0-16.259-7.33-56.774 6.652-67.85 10.55-8.36 28.571-5.749 41.089-5.749h97.47l-7.958-99.459h-95.48c-11.744 0-27.971 2.749-36.93-6.751-6.233-6.608-4.843-16.728-4.843-25.076v-371.974c0.004-9.222-0.781-19.796 8.333-25.226 7.596-4.525 19.001-2.621 27.473-2.621h63.653c31.106 0 64.681-3.56 95.48 0.849 67.586 9.685 122.848 53.159 151.609 114.521 28.033 59.802 15.479 138.565 15.479 202.895v411.757c0 75.795 8.817 151.129-40.629 214.83-60.251 77.621-145.396 73.599-233.876 73.599h-473.421c-78.741 0-154.264 4.711-214.751-55.774-61.925-61.924-55.774-140.276-55.774-220.719v-423.692c0-65.112-12.674-144.58 16.428-204.884 70.011-145.076 238.11-113.382 371.459-113.382h101.448c11.053 0 28.274-3.308 36.017 6.652 7.791 10.018 3.768 31.075 3.768 43.078v95.48c0 11.383 3.341 29.337-2.345 39.574-7.126 12.83-27.966 12.83-35.093 0-5.685-10.237-2.345-28.191-2.345-39.574v-105.425z" />
<glyph unicode="&#xe902;" d="M0 894.781v-936.229h1024v936.229h-1024z" />
<glyph unicode="&#xe903;" d="M224.305 816.762v-9.752h39.010l-39.010 9.752z" />
<glyph unicode="&#xe904;" d="M672.914 816.762v-9.752h29.257v-58.514h9.752v68.267h-39.010z" />
<glyph unicode="&#xe905;" d="M224.305 807.010c12.863-66.746-41.181-168.428 58.514-185.295v-39.010c-204.201-0.022-136.533-279.423-136.533-429.105-51.383-17.068-44.481-86.868 10.287-96.079 113.695-19.121 244.926-1.444 360.304-1.444v19.505h-39.010c6.662 38.183 11.552 64.43-29.257 78.019 8.073 104.494 174.053 97.524 253.562 97.524l9.752-58.514c-94.798-0.858-94.268-44.684-48.762-117.029h-58.514v-19.505c96.461 0 287.957-34.771 326.569 88.156 12.651 40.275 0.38 85.878-4.741 126.397l-97.524-29.257-9.752 29.257c59.055 36.419 64.271 112.557 0 146.286 30.916 169.758-380.974 212.14-282.819-19.505-48.455-24.438-71.529-93.053-19.505-126.781v-19.505l-68.267-9.752c0 150.604 51.522 341.333-146.286 341.333v39.010c161.589 32.901 33.085 184.302-78.019 185.295z" />
<glyph unicode="&#xe906;" d="M672.914 807.010v-58.514h29.257v58.514h-9.752v-48.762h-9.752l-9.752 48.762z" />
<glyph unicode="&#xe907;" d="M682.667 807.010v-48.762h9.752l-9.752 48.762z" />
<glyph unicode="&#xe908;" d="M263.314 777.753v-39.010h9.752l-9.752 39.010z" />
<glyph unicode="&#xe909;" d="M273.067 777.753c-6.3-25.382-23.519-51.913-24.9-77.974-5.179-97.655 166.443-33.362 71.675 54.233-14.151 13.079-29.12 17.684-46.775 23.741z" />
<glyph unicode="&#xe90a;" d="M237.308 761.498v0z" />
<glyph unicode="&#xe90b;" d="M604.648 738.743v-19.505h48.762v19.505h-48.762z" />
<glyph unicode="&#xe90c;" d="M653.41 738.743l-48.762-19.505v-9.752c24.371 0.404 60.803-2.684 48.762 29.257z" />
<glyph unicode="&#xe90d;" d="M711.924 738.743v-29.257h9.752l-9.752 29.257z" />
<glyph unicode="&#xe90e;" d="M721.676 738.743v-29.257h48.762v29.257h-48.762z" />
<glyph unicode="&#xe90f;" d="M672.914 699.734v-58.514h29.257v58.514h-29.257z" />
<glyph unicode="&#xe910;" d="M269.816 618.464v0z" />
<glyph unicode="&#xe911;" d="M302.324 621.715v-39.010h9.752l9.752 39.010h-19.505z" />
<glyph unicode="&#xe912;" d="M185.295 592.457v-9.752h97.524l-97.524 9.752z" />
<glyph unicode="&#xe913;" d="M312.076 592.457v-9.752h87.771l-87.771 9.752z" />
<glyph unicode="&#xe914;" d="M204.8 563.2v-9.752h185.295l-185.295 9.752z" />
<glyph unicode="&#xe915;" d="M565.638 563.2v-9.752h48.762l-48.762 9.752z" />
<glyph unicode="&#xe916;" d="M195.048 553.448v-19.505l68.267-9.752v-19.505l-87.771-9.752v-341.333h243.81v282.819l-25.088 107.005-199.217 10.023z" />
<glyph unicode="&#xe917;" d="M185.295 543.696l68.267-19.505v9.752l-68.267 9.752z" />
<glyph unicode="&#xe918;" d="M721.676 543.696v-9.752h29.257l-29.257 9.752z" />
<glyph unicode="&#xe919;" d="M282.819 533.943v-39.010h29.257v39.010h-29.257z" />
<glyph unicode="&#xe91a;" d="M331.581 504.686h9.752l19.505 19.505c-20.867 10.901-24.642 2.446-29.257-19.505z" />
<glyph unicode="&#xe91b;" d="M565.638 533.943v-9.752h48.762l-48.762 9.752z" />
<glyph unicode="&#xe91c;" d="M136.533 524.191v-370.59h9.752c0 106.404 31.318 272.717-9.752 370.59z" />
<glyph unicode="&#xe91d;" d="M256.812 517.689v0z" />
<glyph unicode="&#xe91e;" d="M295.822 517.689v0zM341.333 524.191v-19.505h19.505v19.505h-19.505z" />
<glyph unicode="&#xe91f;" d="M360.838 524.191l-19.505-19.505v-9.752c21.951 4.615 30.405 8.39 19.505 29.257z" />
<glyph unicode="&#xe920;" d="M558.986 514.167c-28.81-19.213-25.793-68.874 8.096-80.735 23.16-8.106 198.098 0.562 216.788 13.845 31.478 22.374-12.984 54.193-33.125 60.794-39.439 12.928-156.145 29.846-191.759 6.095z" />
<glyph unicode="&#xe921;" d="M640.407 520.94v0z" />
<glyph unicode="&#xe922;" d="M419.352 514.438v-360.838h9.752c0 103.851 30.343 265.286-9.752 360.838z" />
<glyph unicode="&#xe923;" d="M448.61 514.438v-273.067h9.752l-9.752 273.067z" />
<glyph unicode="&#xe924;" d="M165.79 504.686v-351.086h9.752v341.333h78.019l-87.771 9.752z" />
<glyph unicode="&#xe925;" d="M507.124 504.686v-58.514h9.752l-9.752 58.514z" />
<glyph unicode="&#xe926;" d="M575.39 504.686v-29.257h29.257v29.257h-29.257z" />
<glyph unicode="&#xe927;" d="M526.629 485.181v-29.257h9.752l-9.752 29.257z" />
<glyph unicode="&#xe928;" d="M575.39 475.429v-9.752h29.257l-29.257 9.752z" />
<glyph unicode="&#xe929;" d="M633.905 446.172v-9.752h126.781l-126.781 9.752z" />
<glyph unicode="&#xe92a;" d="M594.895 436.419v-9.752h39.010l-39.010 9.752z" />
<glyph unicode="&#xe92b;" d="M572.14 423.417v0z" />
<glyph unicode="&#xe92c;" d="M663.162 426.667v-9.752h68.267l-68.267 9.752z" />
<glyph unicode="&#xe92d;" d="M529.879 410.413v0z" />
<glyph unicode="&#xe92e;" d="M624.152 416.915v-9.752h136.533l-136.533 9.752z" />
<glyph unicode="&#xe92f;" d="M594.895 407.162v-9.752h29.257l-29.257 9.752z" />
<glyph unicode="&#xe930;" d="M624.152 402.873c-55.656-8.964-180.096-92.657-67.349-126.623 65.332-19.681 179.614 12.946 242.32 23.764 48.643 8.392 42.373 72.769 8.096 94.296-43.664 27.423-134.271 16.423-183.068 8.564z" />
<glyph unicode="&#xe931;" d="M809.448 397.41v0z" />
<glyph unicode="&#xe932;" d="M555.886 329.143h39.010v39.010l-39.010-39.010z" />
<glyph unicode="&#xe933;" d="M867.962 368.153v-39.010h9.752l-9.752 39.010z" />
<glyph unicode="&#xe934;" d="M477.867 358.4v-58.514h9.752l-9.752 58.514z" />
<glyph unicode="&#xe935;" d="M565.638 358.4v-19.505h19.505v19.505h-19.505z" />
<glyph unicode="&#xe936;" d="M841.955 351.898v0z" />
<glyph unicode="&#xe937;" d="M747.683 286.883v0z" />
<glyph unicode="&#xe938;" d="M614.4 280.381v-9.752h58.514l-58.514 9.752z" />
<glyph unicode="&#xe939;" d="M672.914 280.381v-9.752h39.010l-39.010 9.752z" />
<glyph unicode="&#xe93a;" d="M741.181 280.381l48.762-146.286-136.533 29.257c18.71-88.483 157.561-106.306 222.077-52.148 40.539 34.029 31.485 92.583 31.485 139.919-40.559-9.888-60.156-25.169-58.514-68.267h-39.010c-3.354 49.944-20.099 80.351-68.267 97.524z" />
<glyph unicode="&#xe93b;" d="M887.467 280.381v-9.752h39.010l-39.010 9.752z" />
<glyph unicode="&#xe93c;" d="M510.374 264.127v0z" />
<glyph unicode="&#xe93d;" d="M854.959 267.378v0z" />
<glyph unicode="&#xe93e;" d="M926.476 270.629v-39.010h9.752l-9.752 39.010z" />
<glyph unicode="&#xe93f;" d="M468.114 251.124v-9.752h29.257l-29.257 9.752z" />
<glyph unicode="&#xe940;" d="M585.143 251.124v-9.752h117.029l-117.029 9.752z" />
<glyph unicode="&#xe941;" d="M513.626 228.369v0z" />
<glyph unicode="&#xe942;" d="M906.971 231.619v-78.019h9.752l-9.752 78.019z" />
<glyph unicode="&#xe943;" d="M936.229 231.619v-78.019h9.752l-9.752 78.019z" />
<glyph unicode="&#xe944;" d="M448.61 153.6h9.752l39.010 58.514c-42.262 11.586-47.597-23.508-48.762-58.514z" />
<glyph unicode="&#xe945;" d="M705.422 205.613v0z" />
<glyph unicode="&#xe946;" d="M812.698 195.86v0z" />
<glyph unicode="&#xe947;" d="M841.955 195.86v0z" />
<glyph unicode="&#xe948;" d="M617.65 166.603v0z" />
<glyph unicode="&#xe949;" d="M692.419 173.105v-9.752h29.257l-29.257 9.752z" />
<glyph unicode="&#xe94a;" d="M175.543 153.6v-9.752h243.81l-243.81 9.752z" />
<glyph unicode="&#xe94b;" d="M97.524 143.848v-39.010h9.752l-9.752 39.010z" />
<glyph unicode="&#xe94c;" d="M487.619 143.848v-39.010h9.752l-9.752 39.010z" />
<glyph unicode="&#xe94d;" d="M136.533 124.343c22.063-66.474 295.942-64.398 321.829 0h-321.829z" />
<glyph unicode="&#xe94e;" d="M451.86 98.337v0z" />
<glyph unicode="&#xe94f;" d="M477.867 104.838l39.010-29.257v9.752l-39.010 19.505z" />
<glyph unicode="&#xe950;" d="M887.467 85.334v0z" />
<glyph unicode="&#xe951;" d="M653.41 95.086l-48.762-9.752v-9.752l48.762 19.505z" />
<glyph unicode="&#xe952;" d="M146.286 85.334v-9.752h302.324l-302.324 9.752z" />
<glyph unicode="&#xe953;" d="M546.133 56.077h9.752l19.505 19.505c-20.867 10.901-24.642 2.446-29.257-19.505z" />
<glyph unicode="&#xe954;" d="M760.686 85.334v-9.752h48.762l-48.762 9.752z" />
<glyph unicode="&#xe955;" d="M520.127 69.079v0z" />
<glyph unicode="&#xe956;" d="M555.886 75.581v-19.505h19.505v19.505h-19.505z" />
<glyph unicode="&#xe957;" d="M136.533 56.077v-9.752h380.343c-100.196 42.043-271.386 9.752-380.343 9.752z" />
<glyph unicode="&#xe958;" d="M546.133 56.077v-9.752h29.257l-29.257 9.752z" />
<glyph unicode="&#xe959;" d="M604.648 56.077v-9.752h214.552l-214.552 9.752z" />
<glyph unicode="&#xe95a;" d="M0 912.275v-971.216h1024v971.216h-1024z" />
<glyph unicode="&#xe95b;" d="M348.371 785.595h-105.567l-10.85-179.455-98.007-126.844-60.050-358.773c54.992 38.371 45.548 139.308 54.16 200.577 14.211 101.108 42.274 159.161 114.747 232.247l-21.113-200.577 63.34 147.794c52.886-29.896 25.886-75.642 22.067-126.68-10.321-137.904-121.529-214.764-127.634-348.371 102.424 62.608 138.672 247.902 156.819 358.928 12.099 74.017 30.443 160.582-72.365 137.237v242.804h84.454c23.629-71.194 345.855-71.194 369.485 0h84.454v-221.691h21.113v242.804h-105.567c-25.243 83.155-354.075 88.745-369.485 0z" />
<glyph unicode="&#xe95c;" d="M337.814 817.265l-105.567-21.113v-200.577h10.557v190.021c28.16 0 111.98-13.347 95.010 31.67z" />
<glyph unicode="&#xe95d;" d="M369.485 806.708v-52.784h10.557l-10.557 52.784z" />
<glyph unicode="&#xe95e;" d="M380.041 806.708v-52.784h306.144v52.784h-306.144z" />
<glyph unicode="&#xe95f;" d="M717.856 806.708l105.567-21.113v10.557l-105.567 10.557z" />
<glyph unicode="&#xe960;" d="M686.186 796.152v-42.227h10.557l-10.557 42.227z" />
<glyph unicode="&#xe961;" d="M823.423 796.152v-253.361h-21.113v221.691h-84.454v-10.557h73.897v-221.691h42.227l-10.557 263.918z" />
<glyph unicode="&#xe962;" d="M263.918 764.481c0-60.333-25.973-201.659 21.113-242.804l-10.557 232.247 63.34-21.113c15.396 40.841-46.744 31.652-73.897 31.67z" />
<glyph unicode="&#xe963;" d="M380.041 753.925v-10.557h306.144l-306.144 10.557z" />
<glyph unicode="&#xe964;" d="M369.485 722.255v-10.557h327.258l-327.258 10.557z" />
<glyph unicode="&#xe965;" d="M327.258 680.028v-10.557h232.247l-232.247 10.557z" />
<glyph unicode="&#xe966;" d="M580.619 680.028l31.67-42.227v31.67l-31.67 10.557z" />
<glyph unicode="&#xe967;" d="M643.959 680.028v-10.557h31.67l-31.67 10.557z" />
<glyph unicode="&#xe968;" d="M327.258 669.471c11.258-52.533 220.99-52.533 232.247 0h-10.557c-51.771-39.221-166.285-30.813-221.691 0z" />
<glyph unicode="&#xe969;" d="M337.814 669.471v-10.557h211.134l-211.134 10.557z" />
<glyph unicode="&#xe96a;" d="M591.175 669.471v-21.113h21.113v21.113h-21.113z" />
<glyph unicode="&#xe96b;" d="M615.807 662.433v0z" />
<glyph unicode="&#xe96c;" d="M643.959 669.471v-31.67h31.67v31.67h-31.67z" />
<glyph unicode="&#xe96d;" d="M337.814 658.914v-10.557h211.134l-211.134 10.557z" />
<glyph unicode="&#xe96e;" d="M327.258 616.688v-42.227h147.794v10.557h-137.237v21.113h137.237l-147.794 10.557z" />
<glyph unicode="&#xe96f;" d="M337.814 606.131v-21.113h137.237v21.113h-137.237z" />
<glyph unicode="&#xe970;" d="M478.57 599.093v0z" />
<glyph unicode="&#xe971;" d="M232.247 553.347v-105.567h10.557l-10.557 105.567z" />
<glyph unicode="&#xe972;" d="M285.031 542.791v-10.557h42.227l-42.227 10.557z" />
<glyph unicode="&#xe973;" d="M612.289 542.791v-10.557h52.784l-52.784 10.557z" />
<glyph unicode="&#xe974;" d="M422.268 437.224l143.151-77.253 184.107-239.448h-475.052v-21.113h358.928c66.791 0 119.615 9.367 158.351-52.784h10.557c15.856 151.062-218.283 245.227-221.691 401.155l158.351-116.124-31.67 52.784h116.124c1.882-91.166 15.931-217.353 105.567-263.918-13.44 74.474-76.967 134.265-81.619 210.979-2.503 41.286 52.733 81.669 26.783 120.678-100.607 151.236-339.835 53.215-451.886-14.956z" />
<glyph unicode="&#xe975;" d="M665.072 532.234v-10.557h52.784l-52.784 10.557z" />
<glyph unicode="&#xe976;" d="M717.856 532.234v-10.557h63.34l-63.34 10.557z" />
<glyph unicode="&#xe977;" d="M348.371 511.121v-73.897h10.557l-10.557 73.897z" />
<glyph unicode="&#xe978;" d="M612.289 511.121v-10.557h52.784l-52.784 10.557z" />
<glyph unicode="&#xe979;" d="M591.175 490.007v-10.557h179.464l-179.464 10.557z" />
<glyph unicode="&#xe97a;" d="M665.072 500.564v-10.557h73.897l-73.897 10.557z" />
<glyph unicode="&#xe97b;" d="M527.835 490.007v0z" />
<glyph unicode="&#xe97c;" d="M580.619 490.007c31.844-36.443 168.733-36.443 200.577 0h-200.577z" />
<glyph unicode="&#xe97d;" d="M316.701 479.451v-31.67h10.557l-10.557 31.67z" />
<glyph unicode="&#xe97e;" d="M485.608 479.451v-10.557h42.227l-42.227 10.557z" />
<glyph unicode="&#xe97f;" d="M823.423 479.451v-10.557h42.227l-42.227 10.557z" />
<glyph unicode="&#xe980;" d="M116.124 458.337v-42.227h10.557l-10.557 42.227z" />
<glyph unicode="&#xe981;" d="M147.794 458.337l-10.557-105.567h10.557v105.567z" />
<glyph unicode="&#xe982;" d="M475.052 426.667l63.34-10.557v31.67l-63.34-21.113z" />
<glyph unicode="&#xe983;" d="M538.392 447.78v-31.67h10.557l-10.557 31.67z" />
<glyph unicode="&#xe984;" d="M643.959 447.78v-10.557h211.134l-211.134 10.557z" />
<glyph unicode="&#xe985;" d="M225.209 430.186v0z" />
<glyph unicode="&#xe986;" d="M337.814 437.224v-31.67h10.557l-10.557 31.67z" />
<glyph unicode="&#xe987;" d="M665.072 437.224v-21.113h190.021v21.113h-190.021z" />
<glyph unicode="&#xe988;" d="M105.567 416.11v-95.010h10.557l-10.557 95.010z" />
<glyph unicode="&#xe989;" d="M200.577 384.44v0z" />
<glyph unicode="&#xe98a;" d="M812.866 384.44l10.557-116.124h10.557l-21.113 116.124z" />
<glyph unicode="&#xe98b;" d="M601.732 373.883v0z" />
<glyph unicode="&#xe98c;" d="M295.588 363.327v-84.454h10.557l-10.557 84.454z" />
<glyph unicode="&#xe98d;" d="M327.258 363.327v-84.454h10.557l-10.557 84.454z" />
<glyph unicode="&#xe98e;" d="M126.68 352.77l-10.557-168.907h10.557v168.907z" />
<glyph unicode="&#xe98f;" d="M358.928 352.77c9.867-46.046 85.143-46.046 95.010 0h-10.557c-30.585-22.788-51.798-18.038-84.454 0z" />
<glyph unicode="&#xe990;" d="M369.485 352.77v-21.113h73.897v21.113h-73.897z" />
<glyph unicode="&#xe991;" d="M475.052 352.77v-31.67h31.67v31.67h-31.67z" />
<glyph unicode="&#xe992;" d="M844.536 342.213v-42.227h10.557l-10.557 42.227z" />
<glyph unicode="&#xe993;" d="M316.701 331.657v-63.34h10.557l-10.557 63.34z" />
<glyph unicode="&#xe994;" d="M714.337 328.138v0z" />
<glyph unicode="&#xe995;" d="M95.010 299.987v-52.784h10.557l-10.557 52.784z" />
<glyph unicode="&#xe996;" d="M358.928 299.987v-10.557h179.464l-179.464 10.557z" />
<glyph unicode="&#xe997;" d="M615.807 292.948v0z" />
<glyph unicode="&#xe998;" d="M358.928 289.43v-21.113h179.464v21.113h-179.464z" />
<glyph unicode="&#xe999;" d="M84.454 268.316v-84.454h10.557l-10.557 84.454z" />
<glyph unicode="&#xe99a;" d="M316.701 268.316v-31.67h10.557l-10.557 31.67z" />
<glyph unicode="&#xe99b;" d="M358.928 268.316v-10.557h179.464l-179.464 10.557z" />
<glyph unicode="&#xe99c;" d="M309.663 229.608v0z" />
<glyph unicode="&#xe99d;" d="M105.567 183.863v-31.67h10.557l-10.557 31.67z" />
<glyph unicode="&#xe99e;" d="M77.416 155.711v0z" />
<glyph unicode="&#xe99f;" d="M263.918 162.749v0z" />
<glyph unicode="&#xe9a0;" d="M717.856 162.749v0z" />
<glyph unicode="&#xe9a1;" d="M66.859 134.598v0z" />
<glyph unicode="&#xe9a2;" d="M95.010 141.636l-21.113-21.113v-10.557c23.761 4.995 32.914 9.082 21.113 31.67z" />
<glyph unicode="&#xe9a3;" d="M738.969 141.636l-464.495-10.557v-10.557h358.928l105.567 21.113z" />
<glyph unicode="&#xe9a4;" d="M784.714 124.041v0z" />
<glyph unicode="&#xe9a5;" d="M928.99 131.079l-21.113-10.557v-10.557l21.113 21.113z" />
<glyph unicode="&#xe9a6;" d="M267.436 113.485v0z" />
<glyph unicode="&#xe9a7;" d="M274.474 99.409v-10.557h496.165c-128.545 53.939-356.13 10.557-496.165 10.557z" />
<glyph unicode="&#xe9a8;" d="M774.158 81.814v0z" />
<glyph unicode="&#xe9a9;" d="M816.385 71.258v0z" />
<glyph unicode="&#xe9aa;" d="M172.426 39.588v0z" />
<glyph unicode="&#xe9ab;" d="M186.502 21.994v0z" />
<glyph unicode="&#xe9ac;" d="M0 933.278v-1013.221h1024v1013.221h-1024z" />
<glyph unicode="&#xe9ad;" d="M129.347 847.046v-10.779h463.495c-121 50.774-331.788 10.779-463.495 10.779z" />
<glyph unicode="&#xe9ae;" d="M118.568 836.267v-10.779h495.832v-10.779h-118.568v-10.779h129.347v32.337h-506.611z" />
<glyph unicode="&#xe9af;" d="M646.737 836.267v-32.337h32.337v10.779c-21.128 7.043-27.529 10.779 0 10.779l-32.337 10.779z" />
<glyph unicode="&#xe9b0;" d="M679.074 836.267v-32.337h10.779l-10.779 32.337z" />
<glyph unicode="&#xe9b1;" d="M107.789 825.488v-765.305h10.779v528.168l-10.779 237.137z" />
<glyph unicode="&#xe9b2;" d="M118.568 825.488v-776.084h291.032v21.558h-129.347v183.242h32.337v-64.674c73.23 0 207.986-32.777 215.579 64.674h140.126v-183.242h-150.905v-21.558h388.042c-38.652 80.513-39.513 169.435-31.214 258.695 3.361 36.15 34.218 90.483 3.11 121.338-61.508 61.010-186.478-57.881-252.149-66.012-95.361-11.808-320.857 107.048-381.529-35.347-24.207-56.814 15.045-190.4 15.045-257.115h-64.674c0 87.778-37.657 288.271 11.079 361.976 27.643 41.806 109.41 61.956 150.597 91.205 97.972 69.573 139.812 173.542 140.135 290.566h118.568c-128.689 54-355.668 10.779-495.832 10.779z" />
<glyph unicode="&#xe9b3;" d="M664.702 821.895v0z" />
<glyph unicode="&#xe9b4;" d="M140.126 814.709v-10.779h323.368l-323.368 10.779z" />
<glyph unicode="&#xe9b5;" d="M129.347 803.93v-732.968h43.116v10.779h-32.337v495.832l-10.779 226.358z" />
<glyph unicode="&#xe9b6;" d="M140.126 803.93v-722.189h10.779v711.411h312.589l-323.368 10.779z" />
<glyph unicode="&#xe9b7;" d="M463.495 803.93v-75.453h10.779l-10.779 75.453z" />
<glyph unicode="&#xe9b8;" d="M150.905 793.151v-711.411h10.779v388.042c167.847 25.158 288.599 157.351 301.811 323.368h-312.589z" />
<glyph unicode="&#xe9b9;" d="M452.716 750.035v-32.337h10.779l-10.779 32.337z" />
<glyph unicode="&#xe9ba;" d="M635.958 750.035v-10.779l194.021-10.779c-36.787 42.098-140.88 21.558-194.021 21.558z" />
<glyph unicode="&#xe9bb;" d="M625.179 739.256v-204.8h204.8l-17.283 193.721-187.517 11.079z" />
<glyph unicode="&#xe9bc;" d="M614.4 728.478v-194.021h10.779l-10.779 194.021z" />
<glyph unicode="&#xe9bd;" d="M829.979 728.478v-183.242h10.779l-10.779 183.242z" />
<glyph unicode="&#xe9be;" d="M646.737 717.699v-161.684h10.779v150.905h150.905l-161.684 10.779z" />
<glyph unicode="&#xe9bf;" d="M657.516 706.92v-140.126h140.126l10.779 140.126h-150.905z" />
<glyph unicode="&#xe9c0;" d="M711.411 685.362v-64.674h10.779l21.558 53.895-32.337 10.779z" />
<glyph unicode="&#xe9c1;" d="M797.642 685.362v-118.568h-140.126v-10.779h150.905l-10.779 129.347z" />
<glyph unicode="&#xe9c2;" d="M722.189 674.583l43.116-86.232 10.779 10.779-32.337 75.453h-21.558z" />
<glyph unicode="&#xe9c3;" d="M355.705 663.804l-75.453-97.011c56.679 11.444 89.231 42.576 107.789 97.011h-32.337z" />
<glyph unicode="&#xe9c4;" d="M273.066 581.165v0z" />
<glyph unicode="&#xe9c5;" d="M287.439 563.201v0z" />
<glyph unicode="&#xe9c6;" d="M215.579 556.014v-32.337h32.337v10.779c-21.128 7.043-27.529 10.779 0 10.779l-32.337 10.779z" />
<glyph unicode="&#xe9c7;" d="M646.737 556.014v-10.779h161.684l-161.684 10.779z" />
<glyph unicode="&#xe9c8;" d="M233.544 541.643v0z" />
<glyph unicode="&#xe9c9;" d="M635.958 534.456v-10.779h194.021l-194.021 10.779z" />
<glyph unicode="&#xe9ca;" d="M161.684 469.783v-388.042h10.779c0 111.96 32.46 285-10.779 388.042z" />
<glyph unicode="&#xe9cb;" d="M172.463 469.783v-388.042h10.779c0 111.96 32.46 285-10.779 388.042z" />
<glyph unicode="&#xe9cc;" d="M222.765 455.411v0z" />
<glyph unicode="&#xe9cd;" d="M194.021 448.225v-377.263h64.674v183.242h-10.779v-172.463h-43.116l-10.779 366.484z" />
<glyph unicode="&#xe9ce;" d="M528.168 329.656v-43.116c135.257 0 209.935 30.251 334.147 75.453-4.472 26.781-10.299 50.631-43.747 48.056-102.463-7.887-177.082-80.393-290.4-80.393z" />
<glyph unicode="&#xe9cf;" d="M894.653 415.888v-53.895h10.779l-10.779 53.895z" />
<glyph unicode="&#xe9d0;" d="M334.147 405.109v-10.779h161.684l-161.684 10.779z" />
<glyph unicode="&#xe9d1;" d="M865.908 387.144v0z" />
<glyph unicode="&#xe9d2;" d="M344.926 383.551v-10.779h140.126l-140.126 10.779z" />
<glyph unicode="&#xe9d3;" d="M269.474 372.772v-10.779h43.116l-43.116 10.779z" />
<glyph unicode="&#xe9d4;" d="M344.926 372.772v-10.779h150.905l-150.905 10.779z" />
<glyph unicode="&#xe9d5;" d="M528.168 372.772v-10.779h140.126l-140.126 10.779z" />
<glyph unicode="&#xe9d6;" d="M887.466 365.586v0z" />
<glyph unicode="&#xe9d7;" d="M334.147 361.993v-150.905h10.779l-10.779 150.905z" />
<glyph unicode="&#xe9d8;" d="M344.926 361.993v-140.126h150.905v140.126h-150.905z" />
<glyph unicode="&#xe9d9;" d="M837.165 358.401v0z" />
<glyph unicode="&#xe9da;" d="M528.168 351.214v-10.779h161.684l-161.684 10.779z" />
<glyph unicode="&#xe9db;" d="M873.095 351.214v-269.474h10.779l-10.779 269.474z" />
<glyph unicode="&#xe9dc;" d="M883.874 351.214v-258.695h10.779l-10.779 258.695z" />
<glyph unicode="&#xe9dd;" d="M269.474 318.878v0z" />
<glyph unicode="&#xe9de;" d="M528.168 340.435v-10.779h140.126l-140.126 10.779z" />
<glyph unicode="&#xe9df;" d="M226.358 329.656v-64.674h10.779l-10.779 64.674z" />
<glyph unicode="&#xe9e0;" d="M269.474 286.541h43.116v43.116l-43.116-43.116z" />
<glyph unicode="&#xe9e1;" d="M258.695 318.878v-43.116h10.779l-10.779 43.116z" />
<glyph unicode="&#xe9e2;" d="M700.632 81.741h150.905v237.137c-146.639-40.107-150.905-97.994-150.905-237.137z" />
<glyph unicode="&#xe9e3;" d="M851.537 318.878v-237.137h10.779l-10.779 237.137z" />
<glyph unicode="&#xe9e4;" d="M269.474 286.541v-10.779h43.116l-43.116 10.779z" />
<glyph unicode="&#xe9e5;" d="M384.449 282.948v0z" />
<glyph unicode="&#xe9e6;" d="M528.168 286.541v-10.779h161.684l-161.684 10.779z" />
<glyph unicode="&#xe9e7;" d="M366.484 275.762c7.985-37.264 35.131-37.264 43.116 0h-43.116z" />
<glyph unicode="&#xe9e8;" d="M377.263 275.762v-21.558h21.558v21.558h-21.558z" />
<glyph unicode="&#xe9e9;" d="M431.158 275.762l32.337-32.337v10.779l-32.337 21.558z" />
<glyph unicode="&#xe9ea;" d="M441.937 275.762v-21.558h21.558v21.558h-21.558z" />
<glyph unicode="&#xe9eb;" d="M280.253 254.204v-10.779h32.337l-32.337 10.779z" />
<glyph unicode="&#xe9ec;" d="M528.168 254.204v-10.779h140.126l-140.126 10.779z" />
<glyph unicode="&#xe9ed;" d="M689.853 254.204v-172.463h10.779l-10.779 172.463z" />
<glyph unicode="&#xe9ee;" d="M657.516 243.425v-150.905h10.779l-10.779 150.905z" />
<glyph unicode="&#xe9ef;" d="M344.926 221.867v-10.779h150.905l-150.905 10.779z" />
<glyph unicode="&#xe9f0;" d="M334.147 189.53v-10.779h172.463l-172.463 10.779z" />
<glyph unicode="&#xe9f1;" d="M280.253 81.741v-10.779l129.347-21.558c18.654 49.483-98.538 32.337-129.347 32.337zM452.716 81.741v-10.779l21.558-21.558h10.779l-32.337 32.337z" />
<glyph unicode="&#xe9f2;" d="M506.611 49.404h10.779l150.905 21.558c-37.055 21.35-150.934 28.607-161.684-21.558z" />
<glyph unicode="&#xe9f3;" d="M700.632 81.741v-10.779h150.905l-150.905 10.779z" />
<glyph unicode="&#xe9f4;" d="M883.874 81.741v-10.779l21.558-21.558h10.779l-32.337 32.337z" />
<glyph unicode="&#xe9f5;" d="M452.716 70.962v-21.558h21.558v21.558h-21.558z" />
<glyph unicode="&#xe9f6;" d="M129.347 49.404v-10.779h291.032l-291.032 10.779z" />
<glyph unicode="&#xe9f7;" d="M506.611 49.404v-10.779h409.6c-108.176 45.393-291.995 10.779-409.6 10.779z" />
<glyph unicode="&#xe9f8;" glyph-name="icones-body-clinical-massotherapy-_5_-depositphotos-bgremover-1" d="M222.871 813.177c0-14.055 2.008-19.075 5.020-12.047 2.008 6.024 2.008 18.071 0 25.098-3.012 6.024-5.020 1.004-5.020-13.051zM424.659 799.122c-26.102-23.090-28.11-29.114-28.11-100.392v-76.298l-33.129-11.043c-59.231-19.075-62.243-28.11-62.243-169.663v-129.506l-92.361-3.012c-61.239-2.008-93.365-7.027-95.373-15.059-3.012-9.035 55.216-13.051 244.957-16.063 172.675-2.008 261.020-7.027 290.133-17.067 38.149-13.051 41.161-12.047 67.263 13.051 45.176 46.18 151.592 30.118 158.62-23.090 4.016-36.141-3.012-50.196-31.122-65.255-37.145-19.075-77.302-19.075-114.447 0-36.141 19.075-47.184 19.075-40.157 0 5.020-13.051-17.067-15.059-169.663-15.059-97.38 0-182.714 3.012-191.749 6.024s-16.063 15.059-16.063 26.102c0 18.071 8.031 19.075 158.62 18.071 193.757-1.004 181.71-2.008 158.62 15.059-15.059 12.047-53.208 15.059-163.639 15.059-133.522 0-143.561-1.004-163.639-22.086-11.043-12.047-19.075-29.114-18.071-37.145 3.012-13.051-12.047-17.067-72.282-22.086-128.502-9.035-58.227-12.047 321.255-13.051 340.329-1.004 366.431-2.008 369.443-18.071 3.012-17.067-10.039-18.071-162.635-18.071-104.408 0-166.651-4.016-166.651-10.039s55.216-10.039 145.569-10.039h145.569v-50.196c0-27.106 5.020-50.196 10.039-50.196 6.024 0 10.039 23.090 10.039 50.196 0 43.169 3.012 50.196 20.078 50.196 16.063 0 20.078 7.027 20.078 35.137s-4.016 35.137-20.078 35.137c-17.067 0-18.071 5.020-13.051 49.192s3.012 52.204-20.078 75.294c-35.137 35.137-120.471 37.145-162.635 4.016-25.098-20.078-31.122-20.078-74.29-9.035-25.098 6.024-50.196 19.075-56.22 28.11-5.020 8.031-20.078 28.11-32.125 43.169-17.067 20.078-23.090 41.161-23.090 74.29 0 52.204-17.067 63.247-22.086 14.055l-3.012-33.129-34.133 47.184c-19.075 26.102-38.149 45.176-43.169 42.165-12.047-8.031 6.024-37.145 68.267-109.427 55.216-65.255 64.251-85.333 41.161-85.333-45.176 0-215.843 209.82-202.792 249.976 8.031 28.11 60.235 38.149 82.322 16.063 13.051-13.051 27.106-16.063 59.231-11.043 56.22 7.027 64.251-1.004 130.51-142.557 29.114-62.243 58.227-111.435 63.247-108.424 13.051 9.035-102.4 249.976-125.49 262.024-46.18 24.094-46.18 25.098-14.055 61.239 18.071 21.082 30.118 46.18 30.118 63.247 0 16.063 6.024 31.122 14.055 34.133 14.055 6.024 40.157 76.298 31.122 85.333-2.008 2.008-17.067 0-33.129-6.024-17.067-6.024-35.137-6.024-43.169-1.004-25.098 16.063-67.263 9.035-96.376-15.059zM571.231 787.075c9.035-8.031-33.129-44.173-51.2-44.173-10.039 0-18.071-7.027-18.071-15.059s7.027-15.059 15.059-15.059c32.125 0 7.027-56.22-31.122-70.275-20.078-8.031-23.090-14.055-18.071-36.141 6.024-24.094 4.016-25.098-22.086-22.086s-29.114 6.024-26.102 36.141c1.004 18.071-3.012 42.165-8.031 53.208-13.051 24.094 1.004 82.322 26.102 111.435 15.059 16.063 26.102 18.071 73.286 12.047 31.122-3.012 58.227-8.031 60.235-10.039zM424.659 365.428c26.102-28.11 47.184-53.208 47.184-55.216 0-4.016-56.22-3.012-137.537 0-10.039 1.004-13.051 25.098-13.051 89.349l1.004 87.341 27.106-35.137c15.059-19.075 48.188-58.227 75.294-86.337zM140.549 752.942c0-5.020 11.043-10.039 25.098-10.039s25.098 5.020 25.098 10.039c0 6.024-11.043 10.039-25.098 10.039s-25.098-4.016-25.098-10.039zM261.020 752.942c0-5.020 11.043-10.039 25.098-10.039s25.098 5.020 25.098 10.039c0 6.024-11.043 10.039-25.098 10.039s-25.098-4.016-25.098-10.039zM222.871 697.726c0-16.063 2.008-22.086 5.020-12.047 2.008 9.035 2.008 23.090 0 30.118-3.012 6.024-5.020-1.004-5.020-18.071zM773.020 662.589c0-18.071 5.020-30.118 13.051-30.118 9.035 0 14.055 12.047 15.059 30.118 0 20.078-4.016 30.118-14.055 30.118-9.035 0-14.055-11.043-14.055-30.118zM705.757 595.326c9.035-2.008 25.098-2.008 35.137 0 9.035 3.012 1.004 5.020-18.071 5.020s-27.106-2.008-17.067-5.020zM823.216 598.338c0-9.035 39.153-13.051 51.2-5.020 10.039 6.024 4.016 9.035-18.071 9.035-18.071 0-33.129-2.008-33.129-4.016zM773.020 532.079c0-20.078 5.020-30.118 15.059-30.118s15.059 10.039 15.059 30.118c0 20.078-5.020 30.118-15.059 30.118s-15.059-10.039-15.059-30.118zM170.667 111.436c0-5.020 10.039-11.043 23.090-13.051 19.075-3.012 22.086-9.035 22.086-51.2 0-26.102 5.020-47.184 10.039-47.184 6.024 0 10.039 21.082 10.039 47.184v48.188l123.482 3.012c181.71 4.016 154.604 22.086-33.129 22.086-89.349 0-155.608-4.016-155.608-9.035zM517.020 110.432c-3.012-5.020 1.004-10.039 9.035-10.039 9.035 0 16.063 5.020 16.063 10.039 0 6.024-4.016 10.039-9.035 10.039-6.024 0-13.051-4.016-16.063-10.039z" />
</font>
</defs>
</svg>
