<?xml version="1.0" standalone="no"?>
<!DOCTYPE svg PUBLIC "-//W3C//DTD SVG 20010904//EN"
 "http://www.w3.org/TR/2001/REC-SVG-20010904/DTD/svg10.dtd">
<svg version="1.0" xmlns="http://www.w3.org/2000/svg"
 width="105.000000pt" height="96.000000pt" viewBox="0 0 105.000000 96.000000"
 preserveAspectRatio="xMidYMid meet">

<g transform="translate(0.000000,96.000000) scale(0.100000,-0.100000)"
fill="#000000" stroke="none">
<path d="M241 842 c8 -24 7 -36 -6 -55 -23 -35 -10 -75 32 -99 44 -27 37 -42
-20 -46 -39 -3 -51 -8 -72 -36 -25 -32 -25 -36 -25 -219 0 -177 -1 -186 -20
-192 -24 -8 -26 -42 -4 -73 15 -21 20 -22 210 -22 123 0 194 4 194 10 0 6 -9
10 -21 10 -17 0 -20 4 -15 24 7 30 -2 56 -20 56 -9 0 -14 11 -14 30 0 27 4 31
58 47 31 10 90 17 132 18 73 0 75 -1 78 -26 3 -23 -1 -27 -40 -35 -51 -11 -60
-33 -29 -75 27 -37 27 -39 -9 -39 -16 0 -30 -4 -30 -10 0 -6 43 -10 110 -10
122 0 169 15 209 66 23 29 28 85 11 128 -11 30 -45 35 -76 11 -41 -31 -47 -8
-9 37 32 38 32 78 0 108 -19 18 -24 31 -20 50 8 36 -26 77 -73 89 -72 18 -195
23 -215 7 -29 -23 -39 -73 -21 -108 15 -29 15 -31 -10 -57 -32 -34 -34 -80 -5
-107 l20 -18 -33 -12 c-18 -7 -36 -13 -40 -13 -5 -1 -8 65 -8 146 0 141 -1
147 -25 179 -21 28 -33 33 -72 36 -58 4 -64 19 -19 46 42 25 54 67 31 111 -20
39 -51 60 -103 67 l-42 6 11 -30z m78 -17 c32 -16 41 -33 41 -76 0 -21 -7 -32
-24 -40 -57 -27 -107 19 -80 73 8 15 14 34 14 43 0 19 13 19 49 0z m100 -239
c19 -30 21 -49 21 -210 l0 -176 -135 0 -135 0 2 178 3 177 43 3 c51 4 57 22 7
22 -33 0 -35 2 -25 20 10 18 21 20 105 20 l93 0 21 -34z m313 -15 c66 -8 90
-25 86 -58 -3 -23 -6 -24 -103 -27 -55 -2 -108 -6 -117 -10 -26 -12 -61 29
-53 62 10 42 33 55 85 47 25 -4 70 -10 102 -14z m91 -117 c41 -22 54 -57 33
-89 -19 -29 -37 -31 -71 -9 -22 15 -24 14 -40 -10 -16 -24 -22 -26 -97 -26
-44 0 -88 5 -98 10 -77 41 -7 118 130 143 37 7 111 -3 143 -19z m-25 -137 c12
-13 27 -37 33 -55 13 -37 26 -42 31 -10 2 12 15 29 31 38 24 13 29 13 37 0 5
-8 10 -32 10 -52 0 -95 -126 -145 -232 -92 -29 15 -53 50 -41 57 28 16 71 16
105 -1 35 -18 48 -19 48 -2 0 4 -14 13 -31 20 -38 16 -52 49 -38 90 13 36 19
37 47 7z m-318 -155 c0 -5 -6 -16 -13 -25 -11 -16 -30 -17 -166 -15 -149 3
-154 4 -162 26 l-8 22 174 0 c96 0 175 -4 175 -8z"/>
<path d="M290 570 c0 -5 4 -10 9 -10 6 0 13 5 16 10 3 6 -1 10 -9 10 -9 0 -16
-4 -16 -10z"/>
<path d="M350 570 c0 -5 5 -10 10 -10 6 0 10 5 10 10 0 6 -4 10 -10 10 -5 0
-10 -4 -10 -10z"/>
<path d="M595 540 c4 -6 11 -8 16 -5 14 9 11 15 -7 15 -8 0 -12 -5 -9 -10z"/>
<path d="M580 400 c0 -5 5 -10 10 -10 6 0 10 5 10 10 0 6 -4 10 -10 10 -5 0
-10 -4 -10 -10z"/>
<path d="M700 845 c0 -15 4 -24 10 -20 6 3 10 12 10 20 0 8 -4 17 -10 20 -6 4
-10 -5 -10 -20z"/>
<path d="M622 788 c7 -20 48 -23 48 -4 0 11 -9 16 -26 16 -16 0 -24 -5 -22
-12z"/>
<path d="M740 785 c0 -9 9 -15 25 -15 16 0 25 6 25 15 0 9 -9 15 -25 15 -16 0
-25 -6 -25 -15z"/>
<path d="M700 724 c0 -14 4 -23 10 -19 6 3 10 15 10 26 0 10 -4 19 -10 19 -5
0 -10 -12 -10 -26z"/>
<path d="M570 110 c0 -5 5 -10 10 -10 6 0 10 5 10 10 0 6 -4 10 -10 10 -5 0
-10 -4 -10 -10z"/>
</g>
</svg>
