<?xml version="1.0" standalone="no"?>
<!DOCTYPE svg PUBLIC "-//W3C//DTD SVG 20010904//EN"
 "http://www.w3.org/TR/2001/REC-SVG-20010904/DTD/svg10.dtd">
<svg version="1.0" xmlns="http://www.w3.org/2000/svg"
 width="100.000000pt" height="92.000000pt" viewBox="0 0 100.000000 92.000000"
 preserveAspectRatio="xMidYMid meet">

<g transform="translate(0.000000,92.000000) scale(0.100000,-0.100000)"
fill="#000000" stroke="none">
<path d="M267 879 c-13 -8 -17 -21 -16 -52 1 -23 -3 -52 -9 -64 -7 -12 -12
-48 -12 -81 0 -47 5 -67 25 -96 14 -21 23 -42 20 -47 -4 -5 -32 -25 -63 -45
-94 -59 -92 -53 -92 -256 0 -112 4 -178 10 -178 6 0 10 63 10 169 0 168 0 170
26 200 35 42 46 39 38 -9 l-7 -40 37 0 c20 0 36 5 36 10 0 6 -9 10 -21 10 -18
0 -20 5 -17 43 2 28 8 42 17 42 18 0 90 -131 86 -154 -2 -9 -4 -32 -5 -51 l-1
-35 -30 35 c-21 25 -28 42 -24 58 7 27 -6 29 -23 2 -11 -18 -7 -28 37 -85 49
-63 50 -66 47 -125 -2 -33 0 -63 5 -66 5 -3 9 26 9 64 0 68 1 72 45 125 48 60
54 77 30 97 -15 13 -18 9 -16 -25 1 -18 -40 -75 -54 -75 -3 0 -5 23 -5 50 0
39 8 66 38 120 20 38 42 70 48 70 11 0 24 -43 24 -76 0 -8 -9 -14 -20 -14 -11
0 -20 -4 -20 -10 0 -5 15 -10 34 -10 34 0 34 0 26 35 -11 49 7 56 42 15 l28
-34 0 -168 c0 -105 4 -168 10 -168 6 0 10 45 10 115 l0 115 118 0 117 0 -3
-80 c-2 -44 -8 -80 -13 -80 -5 0 -9 -4 -9 -10 0 -5 19 -10 43 -10 37 1 40 2
25 14 -14 11 -18 29 -18 90 0 68 2 76 19 76 21 0 38 18 35 38 -1 6 -2 19 -3
27 -1 13 -25 15 -153 15 l-153 0 -17 40 c-12 30 -32 50 -82 82 -36 23 -66 48
-66 55 0 8 9 23 20 35 17 18 20 36 20 104 0 46 -5 86 -10 89 -6 4 -8 21 -4 41
10 54 -14 74 -90 74 -34 0 -69 -5 -79 -11z m142 -27 c13 -24 0 -44 -19 -32
-20 13 -84 12 -96 0 -8 -8 -14 -6 -23 4 -21 25 13 46 74 46 42 0 56 -4 64 -18z
m-5 -73 c21 -25 36 -79 22 -79 -15 0 -65 23 -63 30 3 13 -10 11 -55 -10 -24
-10 -47 -15 -51 -11 -14 14 4 60 30 81 39 31 86 26 117 -11z m-48 -78 c5 -6
23 -12 39 -14 35 -4 44 -32 25 -77 -23 -56 -97 -66 -141 -19 -43 46 -39 75 14
99 51 22 51 22 63 11z m38 -187 c5 -18 -1 -40 -22 -75 l-29 -50 -15 23 c-35
54 -46 83 -37 106 7 18 16 22 53 22 39 0 45 -3 50 -26z m466 -179 c0 -13 -23
-15 -145 -15 -122 0 -145 2 -145 15 0 13 23 15 145 15 122 0 145 -2 145 -15z"/>
<path d="M550 630 c0 -16 5 -30 10 -30 6 0 10 14 10 30 0 17 -4 30 -10 30 -5
0 -10 -13 -10 -30z"/>
<path d="M671 604 c-12 -27 -7 -45 8 -28 14 14 23 54 13 54 -5 0 -14 -12 -21
-26z"/>
<path d="M775 540 c-10 -11 -15 -23 -12 -27 8 -7 47 25 47 39 0 14 -16 9 -35
-12z"/>
<path d="M200 174 c0 -88 3 -115 13 -112 8 3 13 38 15 116 3 96 1 112 -12 112
-14 0 -16 -17 -16 -116z"/>
<path d="M460 175 c0 -70 4 -115 10 -115 6 0 10 45 10 115 0 70 -4 115 -10
115 -6 0 -10 -45 -10 -115z"/>
</g>
</svg>
