<?xml version="1.0" standalone="no"?>
<!DOCTYPE svg PUBLIC "-//W3C//DTD SVG 20010904//EN"
 "http://www.w3.org/TR/2001/REC-SVG-20010904/DTD/svg10.dtd">
<svg version="1.0" xmlns="http://www.w3.org/2000/svg"
 width="102.000000pt" height="99.000000pt" viewBox="0 0 102.000000 99.000000"
 preserveAspectRatio="xMidYMid meet">

<g transform="translate(0.000000,99.000000) scale(0.100000,-0.100000)"
fill="#000000" stroke="none">
<path d="M222 880 c0 -14 2 -19 5 -12 2 6 2 18 0 25 -3 6 -5 1 -5 -13z"/>
<path d="M423 866 c-26 -23 -28 -29 -28 -100 l0 -76 -33 -11 c-59 -19 -62 -28
-62 -169 l0 -129 -92 -3 c-61 -2 -93 -7 -95 -15 -3 -9 55 -13 244 -16 172 -2
260 -7 289 -17 38 -13 41 -12 67 13 45 46 151 30 158 -23 4 -36 -3 -50 -31
-65 -37 -19 -77 -19 -114 0 -36 19 -47 19 -40 0 5 -13 -17 -15 -169 -15 -97 0
-182 3 -191 6 -9 3 -16 15 -16 26 0 18 8 19 158 18 193 -1 181 -2 158 15 -15
12 -53 15 -163 15 -133 0 -143 -1 -163 -22 -11 -12 -19 -29 -18 -37 3 -13 -12
-17 -72 -22 -128 -9 -58 -12 320 -13 339 -1 365 -2 368 -18 3 -17 -10 -18
-162 -18 -104 0 -166 -4 -166 -10 0 -6 55 -10 145 -10 l145 0 0 -50 c0 -27 5
-50 10 -50 6 0 10 23 10 50 0 43 3 50 20 50 16 0 20 7 20 35 0 28 -4 35 -20
35 -17 0 -18 5 -13 49 5 44 3 52 -20 75 -35 35 -120 37 -162 4 -25 -20 -31
-20 -74 -9 -25 6 -50 19 -56 28 -5 8 -20 28 -32 43 -17 20 -23 41 -23 74 0 52
-17 63 -22 14 l-3 -33 -34 47 c-19 26 -38 45 -43 42 -12 -8 6 -37 68 -109 55
-65 64 -85 41 -85 -45 0 -215 209 -202 249 8 28 60 38 82 16 13 -13 27 -16 59
-11 56 7 64 -1 130 -142 29 -62 58 -111 63 -108 13 9 -102 249 -125 261 -46
24 -46 25 -14 61 18 21 30 46 30 63 0 16 6 31 14 34 14 6 40 76 31 85 -2 2
-17 0 -33 -6 -17 -6 -35 -6 -43 -1 -25 16 -67 9 -96 -15z m146 -12 c9 -8 -33
-44 -51 -44 -10 0 -18 -7 -18 -15 0 -8 7 -15 15 -15 32 0 7 -56 -31 -70 -20
-8 -23 -14 -18 -36 6 -24 4 -25 -22 -22 -26 3 -29 6 -26 36 1 18 -3 42 -8 53
-13 24 1 82 26 111 15 16 26 18 73 12 31 -3 58 -8 60 -10z m-146 -420 c26 -28
47 -53 47 -55 0 -4 -56 -3 -137 0 -10 1 -13 25 -13 89 l1 87 27 -35 c15 -19
48 -58 75 -86z"/>
<path d="M140 820 c0 -5 11 -10 25 -10 14 0 25 5 25 10 0 6 -11 10 -25 10 -14
0 -25 -4 -25 -10z"/>
<path d="M260 820 c0 -5 11 -10 25 -10 14 0 25 5 25 10 0 6 -11 10 -25 10 -14
0 -25 -4 -25 -10z"/>
<path d="M222 765 c0 -16 2 -22 5 -12 2 9 2 23 0 30 -3 6 -5 -1 -5 -18z"/>
<path d="M770 730 c0 -18 5 -30 13 -30 9 0 14 12 15 30 0 20 -4 30 -14 30 -9
0 -14 -11 -14 -30z"/>
<path d="M703 663 c9 -2 25 -2 35 0 9 3 1 5 -18 5 -19 0 -27 -2 -17 -5z"/>
<path d="M820 666 c0 -9 39 -13 51 -5 10 6 4 9 -18 9 -18 0 -33 -2 -33 -4z"/>
<path d="M770 600 c0 -20 5 -30 15 -30 10 0 15 10 15 30 0 20 -5 30 -15 30
-10 0 -15 -10 -15 -30z"/>
<path d="M170 181 c0 -5 10 -11 23 -13 19 -3 22 -9 22 -51 0 -26 5 -47 10 -47
6 0 10 21 10 47 l0 48 123 3 c181 4 154 22 -33 22 -89 0 -155 -4 -155 -9z"/>
<path d="M515 180 c-3 -5 1 -10 9 -10 9 0 16 5 16 10 0 6 -4 10 -9 10 -6 0
-13 -4 -16 -10z"/>
</g>
</svg>
